<svg width="92" height="314" viewBox="0 0 92 314" fill="none" xmlns="http://www.w3.org/2000/svg">
<rect width="24" height="314" fill="url(#paint0_linear)"/>
<path d="M38.0762 7.81836H35.2168V6.93359H38.0762V7.81836ZM42.5879 11H41.498V3.77539L39.3125 4.57812V3.59375L42.418 2.42773H42.5879V11ZM51.1133 7.36133C51.1133 8.63086 50.8965 9.57422 50.4629 10.1914C50.0293 10.8086 49.3516 11.1172 48.4297 11.1172C47.5195 11.1172 46.8457 10.8164 46.4082 10.2148C45.9707 9.60938 45.7441 8.70703 45.7285 7.50781V6.06055C45.7285 4.80664 45.9453 3.875 46.3789 3.26562C46.8125 2.65625 47.4922 2.35156 48.418 2.35156C49.3359 2.35156 50.0117 2.64648 50.4453 3.23633C50.8789 3.82227 51.1016 4.72852 51.1133 5.95508V7.36133ZM50.0293 5.87891C50.0293 4.96094 49.9004 4.29297 49.6426 3.875C49.3848 3.45312 48.9766 3.24219 48.418 3.24219C47.8633 3.24219 47.459 3.45117 47.2051 3.86914C46.9512 4.28711 46.8203 4.92969 46.8125 5.79688V7.53125C46.8125 8.45312 46.9453 9.13477 47.2109 9.57617C47.4805 10.0137 47.8867 10.2324 48.4297 10.2324C48.9648 10.2324 49.3613 10.0254 49.6191 9.61133C49.8809 9.19727 50.0176 8.54492 50.0293 7.6543V5.87891ZM57.8516 7.36133C57.8516 8.63086 57.6348 9.57422 57.2012 10.1914C56.7676 10.8086 56.0898 11.1172 55.168 11.1172C54.2578 11.1172 53.584 10.8164 53.1465 10.2148C52.709 9.60938 52.4824 8.70703 52.4668 7.50781V6.06055C52.4668 4.80664 52.6836 3.875 53.1172 3.26562C53.5508 2.65625 54.2305 2.35156 55.1562 2.35156C56.0742 2.35156 56.75 2.64648 57.1836 3.23633C57.6172 3.82227 57.8398 4.72852 57.8516 5.95508V7.36133ZM56.7676 5.87891C56.7676 4.96094 56.6387 4.29297 56.3809 3.875C56.123 3.45312 55.7148 3.24219 55.1562 3.24219C54.6016 3.24219 54.1973 3.45117 53.9434 3.86914C53.6895 4.28711 53.5586 4.92969 53.5508 5.79688V7.53125C53.5508 8.45312 53.6836 9.13477 53.9492 9.57617C54.2188 10.0137 54.625 10.2324 55.168 10.2324C55.7031 10.2324 56.0996 10.0254 56.3574 9.61133C56.6191 9.19727 56.7559 8.54492 56.7676 7.6543V5.87891ZM64.5898 7.36133C64.5898 8.63086 64.373 9.57422 63.9395 10.1914C63.5059 10.8086 62.8281 11.1172 61.9062 11.1172C60.9961 11.1172 60.3223 10.8164 59.8848 10.2148C59.4473 9.60938 59.2207 8.70703 59.2051 7.50781V6.06055C59.2051 4.80664 59.4219 3.875 59.8555 3.26562C60.2891 2.65625 60.9688 2.35156 61.8945 2.35156C62.8125 2.35156 63.4883 2.64648 63.9219 3.23633C64.3555 3.82227 64.5781 4.72852 64.5898 5.95508V7.36133ZM63.5059 5.87891C63.5059 4.96094 63.377 4.29297 63.1191 3.875C62.8613 3.45312 62.4531 3.24219 61.8945 3.24219C61.3398 3.24219 60.9355 3.45117 60.6816 3.86914C60.4277 4.28711 60.2969 4.92969 60.2891 5.79688V7.53125C60.2891 8.45312 60.4219 9.13477 60.6875 9.57617C60.957 10.0137 61.3633 10.2324 61.9062 10.2324C62.4414 10.2324 62.8379 10.0254 63.0957 9.61133C63.3574 9.19727 63.4941 8.54492 63.5059 7.6543V5.87891Z" fill="black"/>
<path d="M38.0762 43.8184H35.2168V42.9336H38.0762V43.8184ZM44.1992 40.6953C44.1992 41.1211 44.0859 41.5 43.8594 41.832C43.6367 42.1641 43.334 42.4238 42.9512 42.6113C43.3965 42.8027 43.748 43.082 44.0059 43.4492C44.2676 43.8164 44.3984 44.2324 44.3984 44.6973C44.3984 45.4355 44.1484 46.0234 43.6484 46.4609C43.1523 46.8984 42.498 47.1172 41.6855 47.1172C40.8652 47.1172 40.207 46.8984 39.7109 46.4609C39.2188 46.0195 38.9727 45.4316 38.9727 44.6973C38.9727 44.2363 39.0977 43.8203 39.3477 43.4492C39.6016 43.0781 39.9512 42.7969 40.3965 42.6055C40.0176 42.418 39.7188 42.1582 39.5 41.8262C39.2812 41.4941 39.1719 41.1172 39.1719 40.6953C39.1719 39.9766 39.4023 39.4062 39.8633 38.9844C40.3242 38.5625 40.9316 38.3516 41.6855 38.3516C42.4355 38.3516 43.041 38.5625 43.502 38.9844C43.9668 39.4062 44.1992 39.9766 44.1992 40.6953ZM43.3145 44.6738C43.3145 44.1973 43.1621 43.8086 42.8574 43.5078C42.5566 43.207 42.1621 43.0566 41.6738 43.0566C41.1855 43.0566 40.793 43.2051 40.4961 43.502C40.2031 43.7988 40.0566 44.1895 40.0566 44.6738C40.0566 45.1582 40.1992 45.5391 40.4844 45.8164C40.7734 46.0938 41.1738 46.2324 41.6855 46.2324C42.1934 46.2324 42.5918 46.0938 42.8809 45.8164C43.1699 45.5352 43.3145 45.1543 43.3145 44.6738ZM41.6855 39.2422C41.2598 39.2422 40.9141 39.375 40.6484 39.6406C40.3867 39.9023 40.2559 40.2598 40.2559 40.7129C40.2559 41.1465 40.3848 41.498 40.6426 41.7676C40.9043 42.0332 41.252 42.166 41.6855 42.166C42.1191 42.166 42.4648 42.0332 42.7227 41.7676C42.9844 41.498 43.1152 41.1465 43.1152 40.7129C43.1152 40.2793 42.9805 39.9258 42.7109 39.6523C42.4414 39.3789 42.0996 39.2422 41.6855 39.2422ZM51.1133 43.3613C51.1133 44.6309 50.8965 45.5742 50.4629 46.1914C50.0293 46.8086 49.3516 47.1172 48.4297 47.1172C47.5195 47.1172 46.8457 46.8164 46.4082 46.2148C45.9707 45.6094 45.7441 44.707 45.7285 43.5078V42.0605C45.7285 40.8066 45.9453 39.875 46.3789 39.2656C46.8125 38.6562 47.4922 38.3516 48.418 38.3516C49.3359 38.3516 50.0117 38.6465 50.4453 39.2363C50.8789 39.8223 51.1016 40.7285 51.1133 41.9551V43.3613ZM50.0293 41.8789C50.0293 40.9609 49.9004 40.293 49.6426 39.875C49.3848 39.4531 48.9766 39.2422 48.418 39.2422C47.8633 39.2422 47.459 39.4512 47.2051 39.8691C46.9512 40.2871 46.8203 40.9297 46.8125 41.7969V43.5312C46.8125 44.4531 46.9453 45.1348 47.2109 45.5762C47.4805 46.0137 47.8867 46.2324 48.4297 46.2324C48.9648 46.2324 49.3613 46.0254 49.6191 45.6113C49.8809 45.1973 50.0176 44.5449 50.0293 43.6543V41.8789ZM57.8516 43.3613C57.8516 44.6309 57.6348 45.5742 57.2012 46.1914C56.7676 46.8086 56.0898 47.1172 55.168 47.1172C54.2578 47.1172 53.584 46.8164 53.1465 46.2148C52.709 45.6094 52.4824 44.707 52.4668 43.5078V42.0605C52.4668 40.8066 52.6836 39.875 53.1172 39.2656C53.5508 38.6562 54.2305 38.3516 55.1562 38.3516C56.0742 38.3516 56.75 38.6465 57.1836 39.2363C57.6172 39.8223 57.8398 40.7285 57.8516 41.9551V43.3613ZM56.7676 41.8789C56.7676 40.9609 56.6387 40.293 56.3809 39.875C56.123 39.4531 55.7148 39.2422 55.1562 39.2422C54.6016 39.2422 54.1973 39.4512 53.9434 39.8691C53.6895 40.2871 53.5586 40.9297 53.5508 41.7969V43.5312C53.5508 44.4531 53.6836 45.1348 53.9492 45.5762C54.2188 46.0137 54.625 46.2324 55.168 46.2324C55.7031 46.2324 56.0996 46.0254 56.3574 45.6113C56.6191 45.1973 56.7559 44.5449 56.7676 43.6543V41.8789Z" fill="black"/>
<path d="M38.0762 82.8184H35.2168V81.9336H38.0762V82.8184ZM39.5234 81.7227L39.957 77.4688H44.3281V78.4707H40.877L40.6191 80.7969C41.0371 80.5508 41.5117 80.4277 42.043 80.4277C42.8203 80.4277 43.4375 80.6855 43.8945 81.2012C44.3516 81.7129 44.5801 82.4062 44.5801 83.2812C44.5801 84.1602 44.3418 84.8535 43.8652 85.3613C43.3926 85.8652 42.7305 86.1172 41.8789 86.1172C41.125 86.1172 40.5098 85.9082 40.0332 85.4902C39.5566 85.0723 39.2852 84.4941 39.2188 83.7559H40.2441C40.3105 84.2441 40.4844 84.6133 40.7656 84.8633C41.0469 85.1094 41.418 85.2324 41.8789 85.2324C42.3828 85.2324 42.7773 85.0605 43.0625 84.7168C43.3516 84.373 43.4961 83.8984 43.4961 83.293C43.4961 82.7227 43.3398 82.2656 43.0273 81.9219C42.7188 81.5742 42.3066 81.4004 41.791 81.4004C41.3184 81.4004 40.9473 81.5039 40.6777 81.7109L40.3906 81.9453L39.5234 81.7227ZM51.1133 82.3613C51.1133 83.6309 50.8965 84.5742 50.4629 85.1914C50.0293 85.8086 49.3516 86.1172 48.4297 86.1172C47.5195 86.1172 46.8457 85.8164 46.4082 85.2148C45.9707 84.6094 45.7441 83.707 45.7285 82.5078V81.0605C45.7285 79.8066 45.9453 78.875 46.3789 78.2656C46.8125 77.6562 47.4922 77.3516 48.418 77.3516C49.3359 77.3516 50.0117 77.6465 50.4453 78.2363C50.8789 78.8223 51.1016 79.7285 51.1133 80.9551V82.3613ZM50.0293 80.8789C50.0293 79.9609 49.9004 79.293 49.6426 78.875C49.3848 78.4531 48.9766 78.2422 48.418 78.2422C47.8633 78.2422 47.459 78.4512 47.2051 78.8691C46.9512 79.2871 46.8203 79.9297 46.8125 80.7969V82.5312C46.8125 83.4531 46.9453 84.1348 47.2109 84.5762C47.4805 85.0137 47.8867 85.2324 48.4297 85.2324C48.9648 85.2324 49.3613 85.0254 49.6191 84.6113C49.8809 84.1973 50.0176 83.5449 50.0293 82.6543V80.8789ZM57.8516 82.3613C57.8516 83.6309 57.6348 84.5742 57.2012 85.1914C56.7676 85.8086 56.0898 86.1172 55.168 86.1172C54.2578 86.1172 53.584 85.8164 53.1465 85.2148C52.709 84.6094 52.4824 83.707 52.4668 82.5078V81.0605C52.4668 79.8066 52.6836 78.875 53.1172 78.2656C53.5508 77.6562 54.2305 77.3516 55.1562 77.3516C56.0742 77.3516 56.75 77.6465 57.1836 78.2363C57.6172 78.8223 57.8398 79.7285 57.8516 80.9551V82.3613ZM56.7676 80.8789C56.7676 79.9609 56.6387 79.293 56.3809 78.875C56.123 78.4531 55.7148 78.2422 55.1562 78.2422C54.6016 78.2422 54.1973 78.4512 53.9434 78.8691C53.6895 79.2871 53.5586 79.9297 53.5508 80.7969V82.5312C53.5508 83.4531 53.6836 84.1348 53.9492 84.5762C54.2188 85.0137 54.625 85.2324 55.168 85.2324C55.7031 85.2324 56.0996 85.0254 56.3574 84.6113C56.6191 84.1973 56.7559 83.5449 56.7676 82.6543V80.8789Z" fill="black"/>
<path d="M38.0762 121.818H35.2168V120.934H38.0762V121.818ZM40.6016 120.207H41.416C41.9277 120.199 42.3301 120.064 42.623 119.803C42.916 119.541 43.0625 119.188 43.0625 118.742C43.0625 117.742 42.5645 117.242 41.5684 117.242C41.0996 117.242 40.7246 117.377 40.4434 117.646C40.166 117.912 40.0273 118.266 40.0273 118.707H38.9434C38.9434 118.031 39.1895 117.471 39.6816 117.025C40.1777 116.576 40.8066 116.352 41.5684 116.352C42.373 116.352 43.0039 116.564 43.4609 116.99C43.918 117.416 44.1465 118.008 44.1465 118.766C44.1465 119.137 44.0254 119.496 43.7832 119.844C43.5449 120.191 43.2188 120.451 42.8047 120.623C43.2734 120.771 43.6348 121.018 43.8887 121.361C44.1465 121.705 44.2754 122.125 44.2754 122.621C44.2754 123.387 44.0254 123.994 43.5254 124.443C43.0254 124.893 42.375 125.117 41.5742 125.117C40.7734 125.117 40.1211 124.9 39.6172 124.467C39.1172 124.033 38.8672 123.461 38.8672 122.75H39.957C39.957 123.199 40.1035 123.559 40.3965 123.828C40.6895 124.098 41.082 124.232 41.5742 124.232C42.0977 124.232 42.498 124.096 42.7754 123.822C43.0527 123.549 43.1914 123.156 43.1914 122.645C43.1914 122.148 43.0391 121.768 42.7344 121.502C42.4297 121.236 41.9902 121.1 41.416 121.092H40.6016V120.207ZM51.1133 121.361C51.1133 122.631 50.8965 123.574 50.4629 124.191C50.0293 124.809 49.3516 125.117 48.4297 125.117C47.5195 125.117 46.8457 124.816 46.4082 124.215C45.9707 123.609 45.7441 122.707 45.7285 121.508V120.061C45.7285 118.807 45.9453 117.875 46.3789 117.266C46.8125 116.656 47.4922 116.352 48.418 116.352C49.3359 116.352 50.0117 116.646 50.4453 117.236C50.8789 117.822 51.1016 118.729 51.1133 119.955V121.361ZM50.0293 119.879C50.0293 118.961 49.9004 118.293 49.6426 117.875C49.3848 117.453 48.9766 117.242 48.418 117.242C47.8633 117.242 47.459 117.451 47.2051 117.869C46.9512 118.287 46.8203 118.93 46.8125 119.797V121.531C46.8125 122.453 46.9453 123.135 47.2109 123.576C47.4805 124.014 47.8867 124.232 48.4297 124.232C48.9648 124.232 49.3613 124.025 49.6191 123.611C49.8809 123.197 50.0176 122.545 50.0293 121.654V119.879ZM57.8516 121.361C57.8516 122.631 57.6348 123.574 57.2012 124.191C56.7676 124.809 56.0898 125.117 55.168 125.117C54.2578 125.117 53.584 124.816 53.1465 124.215C52.709 123.609 52.4824 122.707 52.4668 121.508V120.061C52.4668 118.807 52.6836 117.875 53.1172 117.266C53.5508 116.656 54.2305 116.352 55.1562 116.352C56.0742 116.352 56.75 116.646 57.1836 117.236C57.6172 117.822 57.8398 118.729 57.8516 119.955V121.361ZM56.7676 119.879C56.7676 118.961 56.6387 118.293 56.3809 117.875C56.123 117.453 55.7148 117.242 55.1562 117.242C54.6016 117.242 54.1973 117.451 53.9434 117.869C53.6895 118.287 53.5586 118.93 53.5508 119.797V121.531C53.5508 122.453 53.6836 123.135 53.9492 123.576C54.2188 124.014 54.625 124.232 55.168 124.232C55.7031 124.232 56.0996 124.025 56.3574 123.611C56.6191 123.197 56.7559 122.545 56.7676 121.654V119.879Z" fill="black"/>
<path d="M41.0586 157.361C41.0586 158.631 40.8418 159.574 40.4082 160.191C39.9746 160.809 39.2969 161.117 38.375 161.117C37.4648 161.117 36.791 160.816 36.3535 160.215C35.916 159.609 35.6895 158.707 35.6738 157.508V156.061C35.6738 154.807 35.8906 153.875 36.3242 153.266C36.7578 152.656 37.4375 152.352 38.3633 152.352C39.2812 152.352 39.957 152.646 40.3906 153.236C40.8242 153.822 41.0469 154.729 41.0586 155.955V157.361ZM39.9746 155.879C39.9746 154.961 39.8457 154.293 39.5879 153.875C39.3301 153.453 38.9219 153.242 38.3633 153.242C37.8086 153.242 37.4043 153.451 37.1504 153.869C36.8965 154.287 36.7656 154.93 36.7578 155.797V157.531C36.7578 158.453 36.8906 159.135 37.1562 159.576C37.4258 160.014 37.832 160.232 38.375 160.232C38.9102 160.232 39.3066 160.025 39.5645 159.611C39.8262 159.197 39.9629 158.545 39.9746 157.654V155.879Z" fill="black"/>
<path d="M38.0762 193.818H35.2168V192.934H38.0762V193.818ZM40.6016 192.207H41.416C41.9277 192.199 42.3301 192.064 42.623 191.803C42.916 191.541 43.0625 191.188 43.0625 190.742C43.0625 189.742 42.5645 189.242 41.5684 189.242C41.0996 189.242 40.7246 189.377 40.4434 189.646C40.166 189.912 40.0273 190.266 40.0273 190.707H38.9434C38.9434 190.031 39.1895 189.471 39.6816 189.025C40.1777 188.576 40.8066 188.352 41.5684 188.352C42.373 188.352 43.0039 188.564 43.4609 188.99C43.918 189.416 44.1465 190.008 44.1465 190.766C44.1465 191.137 44.0254 191.496 43.7832 191.844C43.5449 192.191 43.2188 192.451 42.8047 192.623C43.2734 192.771 43.6348 193.018 43.8887 193.361C44.1465 193.705 44.2754 194.125 44.2754 194.621C44.2754 195.387 44.0254 195.994 43.5254 196.443C43.0254 196.893 42.375 197.117 41.5742 197.117C40.7734 197.117 40.1211 196.9 39.6172 196.467C39.1172 196.033 38.8672 195.461 38.8672 194.75H39.957C39.957 195.199 40.1035 195.559 40.3965 195.828C40.6895 196.098 41.082 196.232 41.5742 196.232C42.0977 196.232 42.498 196.096 42.7754 195.822C43.0527 195.549 43.1914 195.156 43.1914 194.645C43.1914 194.148 43.0391 193.768 42.7344 193.502C42.4297 193.236 41.9902 193.1 41.416 193.092H40.6016V192.207ZM51.1133 193.361C51.1133 194.631 50.8965 195.574 50.4629 196.191C50.0293 196.809 49.3516 197.117 48.4297 197.117C47.5195 197.117 46.8457 196.816 46.4082 196.215C45.9707 195.609 45.7441 194.707 45.7285 193.508V192.061C45.7285 190.807 45.9453 189.875 46.3789 189.266C46.8125 188.656 47.4922 188.352 48.418 188.352C49.3359 188.352 50.0117 188.646 50.4453 189.236C50.8789 189.822 51.1016 190.729 51.1133 191.955V193.361ZM50.0293 191.879C50.0293 190.961 49.9004 190.293 49.6426 189.875C49.3848 189.453 48.9766 189.242 48.418 189.242C47.8633 189.242 47.459 189.451 47.2051 189.869C46.9512 190.287 46.8203 190.93 46.8125 191.797V193.531C46.8125 194.453 46.9453 195.135 47.2109 195.576C47.4805 196.014 47.8867 196.232 48.4297 196.232C48.9648 196.232 49.3613 196.025 49.6191 195.611C49.8809 195.197 50.0176 194.545 50.0293 193.654V191.879ZM57.8516 193.361C57.8516 194.631 57.6348 195.574 57.2012 196.191C56.7676 196.809 56.0898 197.117 55.168 197.117C54.2578 197.117 53.584 196.816 53.1465 196.215C52.709 195.609 52.4824 194.707 52.4668 193.508V192.061C52.4668 190.807 52.6836 189.875 53.1172 189.266C53.5508 188.656 54.2305 188.352 55.1562 188.352C56.0742 188.352 56.75 188.646 57.1836 189.236C57.6172 189.822 57.8398 190.729 57.8516 191.955V193.361ZM56.7676 191.879C56.7676 190.961 56.6387 190.293 56.3809 189.875C56.123 189.453 55.7148 189.242 55.1562 189.242C54.6016 189.242 54.1973 189.451 53.9434 189.869C53.6895 190.287 53.5586 190.93 53.5508 191.797V193.531C53.5508 194.453 53.6836 195.135 53.9492 195.576C54.2188 196.014 54.625 196.232 55.168 196.232C55.7031 196.232 56.0996 196.025 56.3574 195.611C56.6191 195.197 56.7559 194.545 56.7676 193.654V191.879Z" fill="black"/>
<path d="M38.0762 232.818H35.2168V231.934H38.0762V232.818ZM39.5234 231.723L39.957 227.469H44.3281V228.471H40.877L40.6191 230.797C41.0371 230.551 41.5117 230.428 42.043 230.428C42.8203 230.428 43.4375 230.686 43.8945 231.201C44.3516 231.713 44.5801 232.406 44.5801 233.281C44.5801 234.16 44.3418 234.854 43.8652 235.361C43.3926 235.865 42.7305 236.117 41.8789 236.117C41.125 236.117 40.5098 235.908 40.0332 235.49C39.5566 235.072 39.2852 234.494 39.2188 233.756H40.2441C40.3105 234.244 40.4844 234.613 40.7656 234.863C41.0469 235.109 41.418 235.232 41.8789 235.232C42.3828 235.232 42.7773 235.061 43.0625 234.717C43.3516 234.373 43.4961 233.898 43.4961 233.293C43.4961 232.723 43.3398 232.266 43.0273 231.922C42.7188 231.574 42.3066 231.4 41.791 231.4C41.3184 231.4 40.9473 231.504 40.6777 231.711L40.3906 231.945L39.5234 231.723ZM51.1133 232.361C51.1133 233.631 50.8965 234.574 50.4629 235.191C50.0293 235.809 49.3516 236.117 48.4297 236.117C47.5195 236.117 46.8457 235.816 46.4082 235.215C45.9707 234.609 45.7441 233.707 45.7285 232.508V231.061C45.7285 229.807 45.9453 228.875 46.3789 228.266C46.8125 227.656 47.4922 227.352 48.418 227.352C49.3359 227.352 50.0117 227.646 50.4453 228.236C50.8789 228.822 51.1016 229.729 51.1133 230.955V232.361ZM50.0293 230.879C50.0293 229.961 49.9004 229.293 49.6426 228.875C49.3848 228.453 48.9766 228.242 48.418 228.242C47.8633 228.242 47.459 228.451 47.2051 228.869C46.9512 229.287 46.8203 229.93 46.8125 230.797V232.531C46.8125 233.453 46.9453 234.135 47.2109 234.576C47.4805 235.014 47.8867 235.232 48.4297 235.232C48.9648 235.232 49.3613 235.025 49.6191 234.611C49.8809 234.197 50.0176 233.545 50.0293 232.654V230.879ZM57.8516 232.361C57.8516 233.631 57.6348 234.574 57.2012 235.191C56.7676 235.809 56.0898 236.117 55.168 236.117C54.2578 236.117 53.584 235.816 53.1465 235.215C52.709 234.609 52.4824 233.707 52.4668 232.508V231.061C52.4668 229.807 52.6836 228.875 53.1172 228.266C53.5508 227.656 54.2305 227.352 55.1562 227.352C56.0742 227.352 56.75 227.646 57.1836 228.236C57.6172 228.822 57.8398 229.729 57.8516 230.955V232.361ZM56.7676 230.879C56.7676 229.961 56.6387 229.293 56.3809 228.875C56.123 228.453 55.7148 228.242 55.1562 228.242C54.6016 228.242 54.1973 228.451 53.9434 228.869C53.6895 229.287 53.5586 229.93 53.5508 230.797V232.531C53.5508 233.453 53.6836 234.135 53.9492 234.576C54.2188 235.014 54.625 235.232 55.168 235.232C55.7031 235.232 56.0996 235.025 56.3574 234.611C56.6191 234.197 56.7559 233.545 56.7676 232.654V230.879Z" fill="black"/>
<path d="M38.0762 271.818H35.2168V270.934H38.0762V271.818ZM44.5332 267.078L41 275H39.8633L43.3848 267.359H38.7676V266.469H44.5332V267.078ZM51.1133 271.361C51.1133 272.631 50.8965 273.574 50.4629 274.191C50.0293 274.809 49.3516 275.117 48.4297 275.117C47.5195 275.117 46.8457 274.816 46.4082 274.215C45.9707 273.609 45.7441 272.707 45.7285 271.508V270.061C45.7285 268.807 45.9453 267.875 46.3789 267.266C46.8125 266.656 47.4922 266.352 48.418 266.352C49.3359 266.352 50.0117 266.646 50.4453 267.236C50.8789 267.822 51.1016 268.729 51.1133 269.955V271.361ZM50.0293 269.879C50.0293 268.961 49.9004 268.293 49.6426 267.875C49.3848 267.453 48.9766 267.242 48.418 267.242C47.8633 267.242 47.459 267.451 47.2051 267.869C46.9512 268.287 46.8203 268.93 46.8125 269.797V271.531C46.8125 272.453 46.9453 273.135 47.2109 273.576C47.4805 274.014 47.8867 274.232 48.4297 274.232C48.9648 274.232 49.3613 274.025 49.6191 273.611C49.8809 273.197 50.0176 272.545 50.0293 271.654V269.879ZM57.8516 271.361C57.8516 272.631 57.6348 273.574 57.2012 274.191C56.7676 274.809 56.0898 275.117 55.168 275.117C54.2578 275.117 53.584 274.816 53.1465 274.215C52.709 273.609 52.4824 272.707 52.4668 271.508V270.061C52.4668 268.807 52.6836 267.875 53.1172 267.266C53.5508 266.656 54.2305 266.352 55.1562 266.352C56.0742 266.352 56.75 266.646 57.1836 267.236C57.6172 267.822 57.8398 268.729 57.8516 269.955V271.361ZM56.7676 269.879C56.7676 268.961 56.6387 268.293 56.3809 267.875C56.123 267.453 55.7148 267.242 55.1562 267.242C54.6016 267.242 54.1973 267.451 53.9434 267.869C53.6895 268.287 53.5586 268.93 53.5508 269.797V271.531C53.5508 272.453 53.6836 273.135 53.9492 273.576C54.2188 274.014 54.625 274.232 55.168 274.232C55.7031 274.232 56.0996 274.025 56.3574 273.611C56.6191 273.197 56.7559 272.545 56.7676 271.654V269.879Z" fill="black"/>
<path d="M39.2715 311H38.1816V303.775L35.9961 304.578V303.594L39.1016 302.428H39.2715V311ZM47.7969 307.361C47.7969 308.631 47.5801 309.574 47.1465 310.191C46.7129 310.809 46.0352 311.117 45.1133 311.117C44.2031 311.117 43.5293 310.816 43.0918 310.215C42.6543 309.609 42.4277 308.707 42.4121 307.508V306.061C42.4121 304.807 42.6289 303.875 43.0625 303.266C43.4961 302.656 44.1758 302.352 45.1016 302.352C46.0195 302.352 46.6953 302.646 47.1289 303.236C47.5625 303.822 47.7852 304.729 47.7969 305.955V307.361ZM46.7129 305.879C46.7129 304.961 46.584 304.293 46.3262 303.875C46.0684 303.453 45.6602 303.242 45.1016 303.242C44.5469 303.242 44.1426 303.451 43.8887 303.869C43.6348 304.287 43.5039 304.93 43.4961 305.797V307.531C43.4961 308.453 43.6289 309.135 43.8945 309.576C44.1641 310.014 44.5703 310.232 45.1133 310.232C45.6484 310.232 46.0449 310.025 46.3027 309.611C46.5645 309.197 46.7012 308.545 46.7129 307.654V305.879ZM54.5352 307.361C54.5352 308.631 54.3184 309.574 53.8848 310.191C53.4512 310.809 52.7734 311.117 51.8516 311.117C50.9414 311.117 50.2676 310.816 49.8301 310.215C49.3926 309.609 49.166 308.707 49.1504 307.508V306.061C49.1504 304.807 49.3672 303.875 49.8008 303.266C50.2344 302.656 50.9141 302.352 51.8398 302.352C52.7578 302.352 53.4336 302.646 53.8672 303.236C54.3008 303.822 54.5234 304.729 54.5352 305.955V307.361ZM53.4512 305.879C53.4512 304.961 53.3223 304.293 53.0645 303.875C52.8066 303.453 52.3984 303.242 51.8398 303.242C51.2852 303.242 50.8809 303.451 50.627 303.869C50.373 304.287 50.2422 304.93 50.2344 305.797V307.531C50.2344 308.453 50.3672 309.135 50.6328 309.576C50.9023 310.014 51.3086 310.232 51.8516 310.232C52.3867 310.232 52.7832 310.025 53.041 309.611C53.3027 309.197 53.4395 308.545 53.4512 307.654V305.879ZM61.2734 307.361C61.2734 308.631 61.0566 309.574 60.623 310.191C60.1895 310.809 59.5117 311.117 58.5898 311.117C57.6797 311.117 57.0059 310.816 56.5684 310.215C56.1309 309.609 55.9043 308.707 55.8887 307.508V306.061C55.8887 304.807 56.1055 303.875 56.5391 303.266C56.9727 302.656 57.6523 302.352 58.5781 302.352C59.4961 302.352 60.1719 302.646 60.6055 303.236C61.0391 303.822 61.2617 304.729 61.2734 305.955V307.361ZM60.1895 305.879C60.1895 304.961 60.0605 304.293 59.8027 303.875C59.5449 303.453 59.1367 303.242 58.5781 303.242C58.0234 303.242 57.6191 303.451 57.3652 303.869C57.1113 304.287 56.9805 304.93 56.9727 305.797V307.531C56.9727 308.453 57.1055 309.135 57.3711 309.576C57.6406 310.014 58.0469 310.232 58.5898 310.232C59.125 310.232 59.5215 310.025 59.7793 309.611C60.041 309.197 60.1777 308.545 60.1895 307.654V305.879Z" fill="black"/>
<defs>
<linearGradient id="paint0_linear" x1="12" y1="0" x2="12" y2="314" gradientUnits="userSpaceOnUse">
<stop stop-color="#2182B9"/>
<stop offset="0.544944" stop-color="#F7F7F7"/>
<stop offset="1" stop-color="#CA0020"/>
</linearGradient>
</defs>
</svg>
